Coordinates
version=1
nRows=17
nColumns=36
inDegrees=yes

Units are S.I. units (second, meters, Newtons, ...)
If the header above contains a line with 'inDegrees', this indicates whether rotational values are in degrees (yes) or radians (no).

endheader
time	pelvis_tilt	pelvis_list	pelvis_rotation	pelvis_tx	pelvis_ty	pelvis_tz	hip_flexion_r	hip_adduction_r	hip_rotation_r	knee_angle_r	knee_angle_r_beta	ankle_angle_r	subtalar_angle_r	mtp_angle_r	hip_flexion_l	hip_adduction_l	hip_rotation_l	knee_angle_l	knee_angle_l_beta	ankle_angle_l	subtalar_angle_l	mtp_angle_l	lumbar_extension	lumbar_bending	lumbar_rotation	arm_flex_r	arm_add_r	arm_rot_r	elbow_flex_r	pro_sup_r	arm_flex_l	arm_add_l	arm_rot_l	elbow_flex_l	pro_sup_l
      7.05000000	     -2.68558970	      1.17050255	      0.00013639	     -0.19909295	      0.90874359	     -0.59089917	      7.82400913	     -4.51324719	      0.22830179	      9.94152880	      0.17351241	      5.53742771	     -8.52409846	     -7.49999987	      8.32807474	     -3.05088174	     -8.91892387	      8.82788221	      0.15407561	      4.16215321	      2.62970770	     -7.49999987	     -8.63878274	     -1.36597222	      0.82060634	     -4.53076269	     -7.97063021	      1.26115682	    115.17579019	     95.24737740	     -3.39671062	     -5.38349294	      2.06977178	    115.39528332	     91.29218820
      7.06000000	     -2.78782420	      1.17836266	     -0.00044136	     -0.20003077	      0.90846386	     -0.59092154	      8.06482824	     -4.53221273	      0.28264859	     10.07745044	      0.17588469	      5.74897682	     -8.28911385	     -7.49999987	      8.55426918	     -3.03979457	     -8.77365394	      8.92456572	      0.15576306	      4.17840537	      2.56222130	     -7.49999987	     -8.73644008	     -1.36148486	      0.86186068	     -4.44433728	     -8.00012938	      1.23871620	    115.38289139	     94.40442452	     -3.28920256	     -5.42282238	      2.10515060	    115.64346266	     90.58977187
      7.07000000	     -2.92831744	      1.13603460	     -0.08841282	     -0.20098561	      0.90824047	     -0.59077092	      8.26991105	     -4.40805529	      0.84764057	      9.97868690	      0.17416094	      4.79770670	     -9.71260243	     -7.49999987	      8.84339402	     -3.13857296	     -9.05874722	      9.07516653	      0.15839154	      4.19297003	      2.69930955	     -7.49999987	     -8.69755941	     -1.28443091	      1.03896202	     -4.37115411	     -7.98622430	      0.83640577	    114.88248719	     99.52755455	     -3.13717028	     -5.44506722	      2.00843162	    114.65898148	     96.62321039
      7.08000000	     -3.14936400	      1.17243878	     -0.13426239	     -0.20202175	      0.90785423	     -0.59073547	      8.68120291	     -4.45340990	      0.84967088	     10.15673927	      0.17726854	      5.07026121	     -9.42613350	     -7.49999987	      9.19432025	     -3.09329123	     -8.86948493	      9.16873105	      0.16002455	      4.10491562	      2.35970742	     -7.49999987	     -8.64219293	     -1.31955959	      1.17872600	     -4.39580743	     -8.08715951	      0.88942306	    114.81810624	     98.50749068	     -3.07585102	     -5.46653947	      2.02801497	    114.86249919	     95.64863631
      7.09000000	     -3.02237923	      1.18236538	     -0.16155863	     -0.20313889	      0.90796919	     -0.59077957	      8.65546829	     -4.47142721	      0.79910063	     10.20004596	      0.17802439	      5.11540246	     -9.26806485	     -7.49999987	      9.14434045	     -3.07229642	     -8.80146000	      9.17942236	      0.16021114	      3.97100669	      2.13479970	     -7.49999987	     -8.98797454	     -1.30092939	      1.21374179	     -4.21201415	     -8.11370153	      0.83770390	    114.57673512	     97.79355752	     -2.88808668	     -5.53886336	      2.09168165	    114.74241359	     95.01225397
      7.10000000	     -3.07418398	      1.19335104	     -0.17087169	     -0.20442018	      0.90785348	     -0.59072506	      8.86764626	     -4.48127184	      0.78289315	     10.30870948	      0.17992092	      5.11476702	     -9.19817451	     -7.49999987	      9.35495808	     -3.06314695	     -8.66969152	      9.30051816	      0.16232466	      3.86104355	      1.91482956	     -7.49999987	     -9.15916636	     -1.30452353	      1.24154291	     -4.09625226	     -8.10637231	      0.81826526	    114.43485192	     97.06153225	     -2.72560404	     -5.66243512	      2.15413632	    114.71822839	     94.40519221
      7.11000000	     -3.24817536	      1.22010133	     -0.18237587	     -0.20586687	      0.90758616	     -0.59057719	      9.24972357	     -4.49472338	      0.80903233	     10.46037832	      0.18256804	      5.07698628	     -9.17569886	     -7.49999987	      9.75054687	     -3.05657026	     -8.55344656	      9.50859137	      0.16595623	      3.78373230	      1.83121816	     -7.49999987	     -9.21287444	     -1.34048063	      1.28115707	     -4.00568366	     -8.09616306	      0.83952865	    114.38756821	     96.68490318	     -2.59789972	     -5.74023173	      2.14305306	    114.72226774	     94.07163618
      7.12000000	     -3.24341238	      1.23607279	     -0.24888776	     -0.20734450	      0.90757029	     -0.59047773	      9.41855962	     -4.49565487	      0.84631810	     10.54184641	      0.18398993	      4.97859155	     -9.31185842	     -7.49999987	      9.93635521	     -3.04822844	     -8.46672115	      9.69962912	      0.16929046	      3.70396396	      1.50021218	     -7.49999987	     -9.47370418	     -1.33885067	      1.37838016	     -3.86374633	     -8.12683197	      0.86480461	    114.32497805	     96.09514795	     -2.50425735	     -5.76738057	      2.13345211	    114.63849282	     93.64763692
      7.13000000	     -3.52896334	      1.27847393	     -0.23644992	     -0.20900272	      0.90711575	     -0.59050605	      9.97152928	     -4.55109717	      0.85434988	     10.78164105	      0.18817514	      5.06216564	     -9.17796594	     -7.49999987	     10.52031778	     -3.00712443	     -8.28592201	      9.99958216	      0.17452563	      3.67106798	      1.28755049	     -7.49999987	     -9.43095841	     -1.35756369	      1.36452726	     -3.86865151	     -8.15894000	      0.94020090	    114.47293533	     95.16390244	     -2.49714423	     -5.77072908	      2.13244828	    114.77153925	     92.80878425
      7.14000000	     -3.57846749	      1.28186196	     -0.25324597	     -0.21076963	      0.90702196	     -0.59045077	     10.22057421	     -4.52670667	      1.05892909	     10.88338765	      0.18995095	      4.57868959	     -9.80077105	     -7.49999987	     10.82481515	     -3.00278761	     -8.03757136	     10.24406360	      0.17879264	      3.52209781	      0.76016354	     -7.49999987	     -9.65222264	     -1.33308618	      1.37334332	     -3.70424051	     -8.12558410	      0.75156238	    113.94044060	     99.96112015	     -2.37003045	     -5.72109005	      1.69899524	    113.85750870	     99.42806578
      7.15000000	     -3.71091560	      1.31775512	     -0.24804723	     -0.21264351	      0.90672259	     -0.59041536	     10.66587560	     -4.58089962	      0.94631580	     11.20159344	      0.19550469	      4.75769672	     -9.63660872	     -7.49999987	     11.27816930	     -2.98659531	     -7.87806635	     10.59141047	      0.18485499	      3.49150743	      0.56287376	     -7.49999987	     -9.82320285	     -1.35691864	      1.36699630	     -3.61628068	     -8.09126070	      0.79609799	    114.03675455	     98.93965158	     -2.29206940	     -5.72520066	      1.64443757	    113.97082895	     98.53061013
      7.16000000	     -3.88666234	      1.37084036	     -0.22245645	     -0.21462984	      0.90632264	     -0.59039022	     11.17758278	     -4.64464532	      0.93743084	     11.55300557	      0.20163799	      4.86175856	     -9.54266181	     -7.49999987	     11.81283351	     -2.95543662	     -7.70542031	     10.98363822	      0.19170065	      3.44001049	      0.36247381	     -7.49999987	     -9.96911909	     -1.40840021	      1.33649799	     -3.53171852	     -8.07001381	      0.86415222	    114.15568144	     98.05077755	     -2.22138513	     -5.73822504	      1.63525422	    114.07386550	     97.75347635
      7.17000000	     -4.02420639	      1.42147450	     -0.22064327	     -0.21679782	      0.90594206	     -0.59038776	     11.65939023	     -4.70145740	      1.02125596	     11.89189118	      0.20755266	      4.89958691	     -9.60322887	     -7.49999987	     12.32349864	     -2.92080702	     -7.51140018	     11.39541620	      0.19888753	      3.36404062	      0.08124155	     -7.49999987	    -10.18758654	     -1.43931194	      1.31675973	     -3.39812227	     -8.07038279	      0.94660080	    114.31866658	     97.34272533	     -2.14116330	     -5.76452015	      1.60760761	    114.18978462	     97.13773579
      7.18000000	     -4.19269703	      1.46412103	     -0.24559253	     -0.21906928	      0.90545787	     -0.59043161	     12.20584006	     -4.75055670	      1.11386152	     12.27248614	      0.21419529	      4.95164003	     -9.61782360	     -7.49999987	     12.88478761	     -2.90036238	     -7.35907118	     11.83749123	      0.20660320	      3.32859274	     -0.14086885	     -7.49999987	    -10.38618046	     -1.45381338	      1.31656667	     -3.26864381	     -8.10454658	      1.01876135	    114.50786100	     96.64265274	     -2.06275625	     -5.76694923	      1.53609466	    114.30362773	     96.47135321
      7.19000000	     -4.43111081	      1.49690799	     -0.27457680	     -0.22152180	      0.90483858	     -0.59045243	     12.81246249	     -4.73985075	      1.49454666	     12.58441632	      0.21963950	      4.58030323	    -10.42070785	     -7.49999987	     13.56011026	     -2.87378612	     -7.01650175	     12.32924193	      0.21518587	      3.18488193	     -0.82707725	     -7.49999987	    -10.51614339	     -1.47589244	      1.27606028	     -3.07570643	     -8.11078844	      1.04218668	    114.35809372	     99.15377526	     -1.97418886	     -5.69438822	      1.20912993	    114.02481899	     98.89483584
      7.20000000	     -4.57167056	      1.49918316	     -0.27041563	     -0.22406066	      0.90429262	     -0.59054296	     13.37462608	     -4.75344323	      1.48840497	     13.02512299	      0.22733128	      4.73084249	    -10.32755953	     -7.49999987	     14.17529375	     -2.89969336	     -6.85782215	     12.87961476	      0.22479168	      3.19487042	     -1.02277825	     -7.49999987	    -10.80297081	     -1.45016783	      1.23047744	     -2.89030776	     -8.15265848	      1.16700843	    114.60160186	     98.18825429	     -1.85821678	     -5.68065025	      1.16640922	    114.20423547	     97.97699556
      7.21000000	     -4.80618426	      1.53464748	     -0.24996257	     -0.22676280	      0.90353916	     -0.59065498	     14.07686168	     -4.80570298	      1.55563881	     13.53332446	      0.23620107	      5.00557635	    -10.10815300	     -7.49999987	     14.93676561	     -2.88660744	     -6.67217814	     13.49673469	      0.23556246	      3.25543453	     -1.16302580	     -7.49999987	    -11.00709858	     -1.46489301	      1.19520998	     -2.75938568	     -8.21289644	      1.33091833	    114.95245527	     96.77071803	     -1.72666944	     -5.67042630	      1.17146910	    114.45913764	     96.60815617
